<svg
  width="198"
  height="70"
  viewBox="0 0 198 70"
  fill="none"
  xmlns="http://www.w3.org/2000/svg"
>
  <path
    d="M64.5661 19.928C67.8941 19.928 70.5341 20.936 72.4861 22.952C74.4701 24.968 75.4621 27.768 75.4621 31.352V47H67.3021V32.456C67.3021 30.728 66.8381 29.4 65.9101 28.472C65.0141 27.512 63.7661 27.032 62.1661 27.032C60.5661 27.032 59.3021 27.512 58.3741 28.472C57.4781 29.4 57.0301 30.728 57.0301 32.456V47H48.8701V32.456C48.8701 30.728 48.4061 29.4 47.4781 28.472C46.5821 27.512 45.3341 27.032 43.7341 27.032C42.1341 27.032 40.8701 27.512 39.9421 28.472C39.0461 29.4 38.5981 30.728 38.5981 32.456V47H30.3901V20.216H38.5981V23.576C39.4301 22.456 40.5181 21.576 41.8621 20.936C43.2061 20.264 44.7261 19.928 46.4221 19.928C48.4381 19.928 50.2301 20.36 51.7981 21.224C53.3981 22.088 54.6461 23.32 55.5421 24.92C56.4701 23.448 57.7341 22.248 59.3341 21.32C60.9341 20.392 62.6781 19.928 64.5661 19.928ZM79.5706 33.56C79.5706 30.808 80.0826 28.392 81.1066 26.312C82.1626 24.232 83.5866 22.632 85.3786 21.512C87.1706 20.392 89.1706 19.832 91.3786 19.832C93.2666 19.832 94.9146 20.216 96.3226 20.984C97.7626 21.752 98.8666 22.76 99.6346 24.008V20.216H107.843V47H99.6346V43.208C98.8346 44.456 97.7146 45.464 96.2746 46.232C94.8666 47 93.2186 47.384 91.3306 47.384C89.1546 47.384 87.1706 46.824 85.3786 45.704C83.5866 44.552 82.1626 42.936 81.1066 40.856C80.0826 38.744 79.5706 36.312 79.5706 33.56ZM99.6346 33.608C99.6346 31.56 99.0586 29.944 97.9066 28.76C96.7866 27.576 95.4106 26.984 93.7786 26.984C92.1466 26.984 90.7546 27.576 89.6026 28.76C88.4826 29.912 87.9226 31.512 87.9226 33.56C87.9226 35.608 88.4826 37.24 89.6026 38.456C90.7546 39.64 92.1466 40.232 93.7786 40.232C95.4106 40.232 96.7866 39.64 97.9066 38.456C99.0586 37.272 99.6346 35.656 99.6346 33.608ZM121.989 24.68C122.949 23.208 124.149 22.056 125.589 21.224C127.029 20.36 128.629 19.928 130.389 19.928V28.616H128.133C126.085 28.616 124.549 29.064 123.525 29.96C122.501 30.824 121.989 32.36 121.989 34.568V47H113.781V20.216H121.989V24.68ZM150.68 47L142.52 35.768V47H134.312V11.48H142.52V31.112L150.632 20.216H160.76L149.624 33.656L160.856 47H150.68ZM162.352 33.56C162.352 30.808 162.864 28.392 163.888 26.312C164.944 24.232 166.368 22.632 168.16 21.512C169.952 20.392 171.952 19.832 174.16 19.832C176.048 19.832 177.696 20.216 179.104 20.984C180.544 21.752 181.648 22.76 182.416 24.008V20.216H190.624V47H182.416V43.208C181.616 44.456 180.496 45.464 179.056 46.232C177.648 47 176 47.384 174.112 47.384C171.936 47.384 169.952 46.824 168.16 45.704C166.368 44.552 164.944 42.936 163.888 40.856C162.864 38.744 162.352 36.312 162.352 33.56ZM182.416 33.608C182.416 31.56 181.84 29.944 180.688 28.76C179.568 27.576 178.192 26.984 176.56 26.984C174.928 26.984 173.536 27.576 172.384 28.76C171.264 29.912 170.704 31.512 170.704 33.56C170.704 35.608 171.264 37.24 172.384 38.456C173.536 39.64 174.928 40.232 176.56 40.232C178.192 40.232 179.568 39.64 180.688 38.456C181.84 37.272 182.416 35.656 182.416 33.608Z"
    fill="white"
  />
  <g clipPath="url(#clip0_16_347)">
    <path
      d="M26.547 24.4531C24.8642 22.775 22.136 22.775 20.4532 24.4531L19.7501 25.1563L19.136 24.5469C17.8189 23.2297 15.6814 23.2297 14.3642 24.5469L10.3282 28.5781C9.88761 29.0188 9.88761 29.7313 10.3282 30.1672C10.7689 30.6031 11.4814 30.6078 11.9173 30.1672L15.9532 26.1359C16.3939 25.6953 17.1064 25.6953 17.5423 26.1359L18.161 26.75L12.7329 32.1734L18.8267 38.2672L26.547 30.5469C28.2298 28.8641 28.2298 26.1359 26.547 24.4578V24.4531ZM17.7673 39.3266L11.6735 33.2328L8.66417 36.2422C6.41417 38.4922 4.87667 41.3609 4.25323 44.4828L4.01886 45.6547C3.94386 46.025 4.06104 46.4047 4.32823 46.6719C4.59542 46.9391 4.97511 47.0516 5.34542 46.9813L6.51729 46.7469C9.63917 46.1234 12.5079 44.5859 14.7579 42.3359L17.7673 39.3266Z"
      fill="white"
    />
  </g>
  <line x1="29.5" y1="15" x2="29.5" y2="65" stroke="#0075FF" strokeWidth="3" />
  <line
    x1="1.31134e-07"
    y1="48.5"
    x2="193"
    y2="48.5"
    stroke="#0075FF"
    strokeWidth="3"
  />
  <defs>
    <clipPath id="clip0_16_347">
      <rect width="24" height="24" fill="white" transform="translate(4 23)" />
    </clipPath>
  </defs>
</svg>
